<svg width="100" height="100" viewBox="0 0 100 100" fill="none" xmlns="http://www.w3.org/2000/svg">
<path d="M12.5 50C12.5 54.9246 13.47 59.8009 15.3545 64.3506C17.2391 68.9003 20.0013 73.0343 23.4835 76.5165C26.9657 79.9987 31.0997 82.7609 35.6494 84.6455C40.1991 86.53 45.0754 87.5 50 87.5C54.9246 87.5 59.8009 86.53 64.3506 84.6455C68.9003 82.7609 73.0343 79.9987 76.5165 76.5165C79.9987 73.0343 82.7609 68.9003 84.6455 64.3506C86.53 59.8009 87.5 54.9246 87.5 50C87.5 40.0544 83.5491 30.5161 76.5165 23.4835C69.4839 16.4509 59.9456 12.5 50 12.5C40.0544 12.5 30.5161 16.4509 23.4835 23.4835C16.4509 30.5161 12.5 40.0544 12.5 50Z" stroke="#8E8E93" stroke-width="2" stroke-linecap="round" stroke-linejoin="round"/>
<path d="M50 33.3333V50" stroke="#8E8E93" stroke-width="2" stroke-linecap="round" stroke-linejoin="round"/>
<path d="M50 66.6667H50.0417" stroke="#8E8E93" stroke-width="2" stroke-linecap="round" stroke-linejoin="round"/>
</svg>
