<svg width="30" height="30" viewBox="0 0 30 30" fill="none" xmlns="http://www.w3.org/2000/svg">
<path fill-rule="evenodd" clip-rule="evenodd" d="M28.4375 15C28.4375 7.57868 22.4214 1.5625 15 1.5625C7.57868 1.5625 1.5625 7.57868 1.5625 15C1.5625 17.1479 2.06714 19.1806 2.96516 20.9836C3.09916 21.2526 3.1276 21.5274 3.06575 21.7585L2.32125 24.541C1.81159 26.4457 3.55421 28.1884 5.459 27.6787L8.24155 26.9342C8.47267 26.8724 8.74739 26.9009 9.01644 27.0349C10.8194 27.9329 12.8521 28.4375 15 28.4375C22.4214 28.4375 28.4375 22.4214 28.4375 15ZM15 3.4375C21.3857 3.4375 26.5625 8.61421 26.5625 15C26.5625 21.3857 21.3857 26.5625 15 26.5625C13.1486 26.5625 11.4015 26.1281 9.85239 25.3565C9.23064 25.0469 8.48716 24.9276 7.75691 25.123L4.97436 25.8675C4.46333 26.0042 3.99579 25.5366 4.13252 25.0256L4.87704 22.2431C5.07242 21.5129 4.95317 20.7694 4.6435 20.1476C3.8719 18.5985 3.4375 16.8514 3.4375 15C3.4375 8.61421 8.61421 3.4375 15 3.4375Z" fill="#F4F5F6"/>
</svg>
