<svg width="30" height="30" viewBox="0 0 30 30" fill="none" xmlns="http://www.w3.org/2000/svg">
<path fill-rule="evenodd" clip-rule="evenodd" d="M8.13991 5.53821C8.53302 5.20125 9.12487 5.24679 9.46182 5.6399L16.9619 14.3899C17.2627 14.741 17.2627 15.259 16.9619 15.6101L9.46182 24.3601C9.12487 24.7533 8.53302 24.7988 8.13991 24.4619C7.74678 24.1249 7.70125 23.533 8.03822 23.1399L15.0152 15L8.03822 6.86014C7.70125 6.46701 7.74678 5.87518 8.13991 5.53821ZM13.1401 5.53835C13.5332 5.20139 14.1251 5.24691 14.4621 5.64003L21.9621 14.39C22.263 14.7411 22.263 15.2591 21.9621 15.6103L14.4621 24.3603C14.1251 24.7534 13.5332 24.7989 13.1401 24.462C12.747 24.125 12.7015 23.5331 13.0385 23.14L20.0155 15.0001L13.0385 6.86026C12.7015 6.46715 12.747 5.8753 13.1401 5.53835Z" fill="#F4F5F6"/>
</svg>
