<svg width="20" height="20" viewBox="0 0 20 20" fill="none" xmlns="http://www.w3.org/2000/svg">
<path fill-rule="evenodd" clip-rule="evenodd" d="M6 1.33333C5.63181 1.33333 5.33333 1.63181 5.33333 1.99999C5.33333 2.36818 5.63181 2.66666 6 2.66666H16V17.3333H6C5.63181 17.3333 5.33333 17.6319 5.33333 18C5.33333 18.3681 5.63181 18.6667 6 18.6667H16C16.7364 18.6667 17.3333 18.0697 17.3333 17.3333V2.66666C17.3333 1.93029 16.7364 1.33333 16 1.33333H6ZM8.80473 6.52859C8.54439 6.26823 8.12228 6.26823 7.86193 6.52859C7.60157 6.78894 7.60157 7.21105 7.86193 7.47139L9.72385 9.33333H0.666667C0.298477 9.33333 0 9.63181 0 9.99999C0 10.3682 0.298477 10.6667 0.666667 10.6667H9.72385L7.86193 12.5286C7.60157 12.7889 7.60157 13.211 7.86193 13.4715C8.12228 13.7317 8.54439 13.7317 8.80473 13.4715L11.8047 10.4714C12.0651 10.211 12.0651 9.78894 11.8047 9.52859L8.80473 6.52859Z" fill="#F4F5F6"/>
</svg>
