<svg width="50" height="50" viewBox="0 0 50 50" fill="none" xmlns="http://www.w3.org/2000/svg">
<path d="M18.75 22.9167C18.75 24.5743 19.4085 26.164 20.5806 27.3361C21.7527 28.5082 23.3424 29.1667 25 29.1667C26.6576 29.1667 28.2473 28.5082 29.4194 27.3361C30.5915 26.164 31.25 24.5743 31.25 22.9167C31.25 21.2591 30.5915 19.6694 29.4194 18.4972C28.2473 17.3251 26.6576 16.6667 25 16.6667C23.3424 16.6667 21.7527 17.3251 20.5806 18.4972C19.4085 19.6694 18.75 21.2591 18.75 22.9167Z" stroke="#18C5DC" stroke-width="2" stroke-linecap="round" stroke-linejoin="round"/>
<path d="M36.7854 34.7021L27.9458 43.5417C27.1646 44.3222 26.1054 44.7606 25.001 44.7606C23.8967 44.7606 22.8375 44.3222 22.0562 43.5417L13.2146 34.7021C10.8838 32.3712 9.29653 29.4015 8.65351 26.1685C8.0105 22.9355 8.3406 19.5844 9.60209 16.539C10.8636 13.4936 12.9998 10.8907 15.7406 9.05939C18.4814 7.22807 21.7037 6.25061 25 6.25061C28.2963 6.25061 31.5186 7.22807 34.2594 9.05939C37.0002 10.8907 39.1364 13.4936 40.3979 16.539C41.6594 19.5844 41.9895 22.9355 41.3465 26.1685C40.7035 29.4015 39.1162 32.3712 36.7854 34.7021Z" stroke="#18C5DC" stroke-width="2" stroke-linecap="round" stroke-linejoin="round"/>
</svg>
